<svg xmlns="http://www.w3.org/2000/svg" xmlns:xlink="http://www.w3.org/1999/xlink" viewBox="0 0 1280 844"><defs><style>.cls-1,.cls-15,.cls-22,.cls-8{fill:none;}.cls-2{fill:#f9bda7;}.cls-3{fill:#d9acb1;}.cls-4{opacity:0.3;}.cls-5{fill:#08445e;}.cls-6{fill:#0c6d95;}.cls-7{fill:#104055;}.cls-15,.cls-8{stroke:#000;}.cls-15,.cls-22,.cls-8{stroke-miterlimit:10;}.cls-8{stroke-width:2px;}.cls-10,.cls-9{fill:#095270;}.cls-10{opacity:0.61;}.cls-11,.cls-13{fill:#9cb4bf;}.cls-11{opacity:0.52;}.cls-12{clip-path:url(#clip-path);}.cls-14{fill:#cedce2;}.cls-16{fill:#dd9331;}.cls-17{font-size:42px;fill:#903f12;font-family:BritannicBold, Britannic Bold;}.cls-18{fill:#fbb03b;}.cls-19{fill:#fdd089;}.cls-20{fill:#482d09;}.cls-21{fill:#905a12;}.cls-22{stroke:#08445e;}</style><clipPath id="clip-path"><path class="cls-1" d="M499.38,592.54S348.6,577.2,298.28,573.4c-21.1-1.6-62.82-3.95-100-5.94l-11.14-.59-9.63-.5-2.81-.14c-10.31-.55-19.69-1-27.45-1.42l-21.9-1.1,0,.27a40.78,40.78,0,0,0-4.85-.27c-18.16,0-32.89,10.84-32.89,24.22s14.73,24.22,32.89,24.22h.43s10.36.39,26.23,1l27.57.94,2.46.07,10,.34,11.13.35c37.41,1.18,78.57,2.28,99.11,2.2,54.06-.23,216.2-4.85,216.2-4.85Z"/></clipPath></defs><g id="BG"><g id="BG_for_page"><path class="cls-2" d="M1137,439V359.76a17.53,17.53,0,0,1,17.5-17.56h4a17.53,17.53,0,0,0,17.5-17.56V245.36a17.53,17.53,0,0,0-17.5-17.56h-37a17.53,17.53,0,0,1-17.5-17.56V131a17.53,17.53,0,0,0-17.5-17.56h-148A17.54,17.54,0,0,1,921,95.84V17.56A17.53,17.53,0,0,0,903.5,0h-445A17.53,17.53,0,0,0,441,17.56V95.84a17.54,17.54,0,0,1-17.5,17.56h-52A17.53,17.53,0,0,0,354,131v79.28a17.53,17.53,0,0,0,17.5,17.56h0A17.53,17.53,0,0,1,389,245.36v79.28a17.53,17.53,0,0,1-17.5,17.56h-147A17.53,17.53,0,0,0,207,359.76V439a17.53,17.53,0,0,1-17.5,17.56h-62A17.53,17.53,0,0,0,110,474.16v79.28A17.53,17.53,0,0,0,127.5,571h1117a17.53,17.53,0,0,0,17.5-17.56V474.16a17.53,17.53,0,0,0-17.5-17.56h-90A17.53,17.53,0,0,1,1137,439Z"/><path class="cls-3" d="M1269,584.2V566.43c0-11.83-9.18-21.43-20.5-21.43H35.5C24.18,545,15,554.6,15,566.43V584.2c0,11.84,9.18,21.44,20.5,21.44h10c11.32,0,20.5,9.59,20.5,21.43V643.8c0,11.83,9.18,21.43,20.5,21.43h110c11.32,0,20.5,9.59,20.5,21.43v16.73c0,11.83,9.18,21.43,20.5,21.43h19c11.32,0,20.5,9.59,20.5,21.43V763c0,11.83,9.18,21.43,20.5,21.43h143c11.32,0,20.5,9.59,20.5,21.43v16.73c0,11.83,9.18,21.43,20.5,21.43h561c11.32,0,20.5-9.6,20.5-21.43V805.84c0-11.84,9.18-21.43,20.5-21.43h102c11.32,0,20.5-9.6,20.5-21.43V746.25c0-11.84,9.18-21.43,20.5-21.43h15c11.32,0,20.5-9.6,20.5-21.43V685.61c0-11.83-9.18-21.43-20.5-21.43h0c-11.32,0-20.5-9.59-20.5-21.43V627.07c0-11.84,9.18-21.43,20.5-21.43h7C1259.82,605.64,1269,596,1269,584.2Z"/></g></g><g id="shadow"><ellipse class="cls-4" cx="1028" cy="703" rx="165" ry="47"/><ellipse class="cls-4" cx="701" cy="625" rx="197" ry="33"/></g><g id="food"><path class="cls-4" d="M104.7,615.11c49.06,8.86,149.46,7,199.3,6.81,45.86-.16,45.87,0,199.33-6.2,7,0,13.68.36,13.67-6.51l-1-6a12.63,12.63,0,0,0-12.69-12.49l-202.39,6.2-196.25-4.81c-7.84,1.08-7.48,1.64-10.67,7.89-.11.22.12.78,0,1C92.29,604.09,94.67,613.3,104.7,615.11Z"/><polygon class="cls-5" points="845.13 504 844.91 617.46 837.91 637 820.52 551.89 845.13 504"/><path class="cls-6" d="M801.91,527.5c0,22.48-11.26,43.08-29.94,59h0c-2.12,1.82-4.33,3.56-6.64,5.25l-.08.06L765,592l-.27.19-.12.09A128,128,0,0,1,744.71,604l-.65.3-4.5,2-.28.13-.4.17-.14.06a162.94,162.94,0,0,1-54.28,12.12c-3.15.17-6.34.26-9.55.26q-4,0-8-.19a170.31,170.31,0,0,1-19.86-2c-56.75-9.14-99.16-45.65-99.16-89.29,0-18.19,7.37-35.15,20.09-49.4h0c10-11.25,23.4-20.81,39.1-28C626.72,441.18,650,436,674.91,436a167,167,0,0,1,59.57,10.67c24.14,9.26,43.65,24,55.34,41.84C797.58,500.34,801.91,513.56,801.91,527.5Z"/><polygon class="cls-7" points="719.43 90.18 600.94 108.82 680.37 121.39 719.43 90.18"/><polygon class="cls-7" points="689.72 117.65 600.1 108.38 659.77 138.26 689.72 117.65"/><ellipse class="cls-6" cx="738.41" cy="217.5" rx="115" ry="133"/><path class="cls-6" d="M864.91,436a175.4,175.4,0,0,1-6.34,46.91,169.43,169.43,0,0,1-12.45,31.9c-.68,1.32-1.38,2.64-2.09,3.94-.09.17-.18.34-.28.51a158.87,158.87,0,0,1-48.61,54.16c-2,1.39-4,2.71-6.08,4a146,146,0,0,1-15.83,8.51c-.42.21-.83.4-1.26.58h0c-1.09.5-2.19,1-3.29,1.44a141.14,141.14,0,0,1-79.4,8.88c-.3,0-.59-.1-.88-.15A140.82,140.82,0,0,1,670.07,592C620.33,575.76,581.44,532.53,568,478.1h0a172.57,172.57,0,0,1-3.37-17.46A176.75,176.75,0,0,1,562.91,436c0-55.92,26.09-105.26,65.84-134.62A147,147,0,0,1,643.12,292a141.59,141.59,0,0,1,70.79-19c35.77,0,68.63,13.42,94.5,35.86q3.84,3.33,7.47,6.92a165.12,165.12,0,0,1,41.75,70.06A175.11,175.11,0,0,1,864.91,436Z"/><path class="cls-6" d="M532.19,624.16c-58.88-27.3-72.83-121-31.58-208.43s122.28-135.81,181-108.11,72.83,121,31.58,208.43S628.91,669,532.19,624.16Z"/><path class="cls-6" d="M624.88,239s-6.34,40.71-11,51c-5.49,12.21-23.21,28.5-23.21,28.5l68.64-15.18Z"/><path class="cls-6" d="M850.79,249.35S840.41,288,840.41,296c0,37.11,17.5,90.19,17.5,90.19l-56-68.19Z"/><path class="cls-6" d="M693.26,95.15C690.91,96,575.91,144,575.91,144l78.53-17.36Z"/><polygon class="cls-5" points="634.59 159.25 575.91 143 654.91 126 634.59 159.25"/><path class="cls-5" d="M719.91,534.81c0,46.84-44.1,104.19-98.5,104.19s-98.5-57.35-98.5-104.19S567,450,621.41,450,719.91,488,719.91,534.81Z"/><path class="cls-6" d="M710.91,534.81c0,46.84-44.1,104.19-98.5,104.19s-98.5-57.35-98.5-104.19S558,450,612.41,450,710.91,488,710.91,534.81Z"/><path class="cls-6" d="M824.91,629c0,6.63-8.95,12-20,12-4.5,0-8.66-1.89-12-3.4V619.4a29.47,29.47,0,0,1,12-2.4C816,617,824.91,622.37,824.91,629Z"/><path class="cls-5" d="M869.91,628c0,6.63-8.95,12-20,12a29.47,29.47,0,0,1-12-2.4V618.4a29.47,29.47,0,0,1,12-2.4C861,616,869.91,621.37,869.91,628Z"/><rect class="cls-8" x="747.91" y="253" width="31" height="1"/><polygon class="cls-5" points="764.91 591 719.91 614 719.91 535 720.91 533 764.91 591"/><polygon class="cls-5" points="742.28 598.45 692.24 605.47 718.06 540.82 719.01 531.14 742.28 598.45"/><path class="cls-9" d="M765.32,591.76l-.08.06L765,592l-.27.19-.12.09c-2,1.45-7.45,5.42-9.68,6.71-2.06,1.19-6.49,3.27-10.2,5l-.65.3-4.5,2-.28.13-.4.17-.14.06-1.64-1.4L764.91,591Z"/><path class="cls-10" d="M785.06,579.42,782.91,581l-4.5,1-5.18,4-.24-.3L728.91,531,774,494.78l5.94-4.78,13,71.34,2.2,12.08C793.15,574.81,787.12,578.13,785.06,579.42Z"/><polygon class="cls-6" points="793.91 620.61 793.4 628.75 792.89 637 768.61 602.73 767.97 601.83 719.91 533.99 772.33 486 773.42 492.77 787.47 580.43 788.93 589.5 793.91 620.61"/><path class="cls-6" d="M566.91,599H732.3a28.61,28.61,0,0,1,28.61,28.61v0A11.39,11.39,0,0,1,749.53,639h-168a14.59,14.59,0,0,1-14.59-14.59V599A0,0,0,0,1,566.91,599Z"/><circle class="cls-11" cx="791.91" cy="669" r="5"/><path class="cls-11" d="M879.51,600l-4.83-2a2.85,2.85,0,0,0-2.63.26l-4.34,2.87a2.84,2.84,0,0,1-4.4-2.57l.37-5.19a2.85,2.85,0,0,0-1.06-2.42l-4.08-3.25a3.51,3.51,0,0,1-.44-.42,4.3,4.3,0,0,0,1.73.71h0a2.75,2.75,0,0,0,1.21-.09,3.58,3.58,0,0,0,2.13-2.57,3.37,3.37,0,0,0,2.87.57,3.72,3.72,0,0,0,2.21-2.86,3.19,3.19,0,0,0,2.46.29c2.34-.76,3.24-4.59,2.19-8.85h0c-.09-.35-.19-.7-.3-1.06a2.69,2.69,0,0,1,.94.93l2.75,4.41a2.86,2.86,0,0,0,2.28,1.34l5.21.23a2.84,2.84,0,0,1,2,4.66l-3.35,4a2.83,2.83,0,0,0-.56,2.58l1.39,5A2.84,2.84,0,0,1,879.51,600Z"/><path class="cls-11" d="M901,600.25q-1.62,4.38-3.55,8.75c-1.17,2.65-2.43,5.31-3.77,8a171.59,171.59,0,0,1-12.36,20.59l9.54-28.3a2.25,2.25,0,0,1,.08-.24C892,605.92,895.45,603,901,600.25Z"/><g class="cls-12"><rect class="cls-6" x="80.91" y="554.37" width="444" height="83.56"/><ellipse class="cls-13" cx="95.91" cy="590.7" rx="57" ry="64.19"/><path class="cls-13" d="M214.88,604.85c-2.74,61-25.54,109.46-50.93,108.32a20.25,20.25,0,0,1-6.89-1.57c19.16-13.39,34.45-54.48,36.67-103.7,2.49-55.28-12.36-101.84-34.09-110.89,4.58-3.21,9.37-4.84,14.27-4.62C199.29,493.54,217.63,543.88,214.88,604.85Z"/><path class="cls-13" d="M260.88,609.85c-2.74,61-17.73,109.81-33.48,109.1a8.4,8.4,0,0,1-4.25-1.45c12.13-13.71,22.32-55,24.54-104.24C250.18,558,241.76,511.71,228.42,503c2.9-3.29,5.9-5,8.94-4.86C253.1,498.89,263.63,548.88,260.88,609.85Z"/></g><circle class="cls-14" cx="713.91" cy="177" r="39"/><circle class="cls-14" cx="806.91" cy="177" r="39"/><circle cx="706.91" cy="171" r="6"/><circle cx="799.91" cy="171" r="6"/><ellipse class="cls-6" cx="713.91" cy="211.5" rx="34" ry="14.5"/><ellipse class="cls-6" cx="806.91" cy="213.5" rx="34" ry="14.5"/><ellipse class="cls-9" cx="836.91" cy="246" rx="40" ry="32"/><ellipse class="cls-6" cx="830.41" cy="248.5" rx="38.5" ry="30.5"/><ellipse class="cls-9" cx="684.91" cy="253" rx="40" ry="32"/><ellipse class="cls-6" cx="688.41" cy="256" rx="38.5" ry="32"/><path d="M753.91,127a8.52,8.52,0,0,1-2.88,6c-5.33-5.3-17.48-9-31.62-9s-26.29,3.7-31.62,9a8.52,8.52,0,0,1-2.88-6c0-8.28,15.45-15,34.5-15S753.91,118.72,753.91,127Z"/><path d="M841.91,107a9,9,0,0,1-2.54,6c-4.71-5.3-15.46-9-28-9s-23.24,3.7-27.95,9a9,9,0,0,1-2.55-6c0-8.28,13.66-15,30.5-15S841.91,98.72,841.91,107Z"/><path d="M759.22,224.45l-9.9-12.8a2.81,2.81,0,0,1,2.22-4.52h19.8a2.8,2.8,0,0,1,2.22,4.52l-9.9,12.8A2.81,2.81,0,0,1,759.22,224.45Z"/><line class="cls-15" x1="761.49" y1="238" x2="761.49" y2="224"/><path class="cls-16" d="M1163,609.24a2.25,2.25,0,0,0-.08-.24h-272a2.25,2.25,0,0,0-.08.24l-9.54,28.3L860.91,698h.44c0,18.78,74.13,34,165.56,34s165.57-15.22,165.57-34h.43Z"/><text class="cls-17" transform="translate(911.4 688.28) rotate(8.37)">W</text><text class="cls-17" transform="translate(949.15 693.5) rotate(4.65)">H</text><text class="cls-17" transform="translate(981.13 695.88) rotate(2.63)">I</text><text class="cls-17" transform="matrix(1, 0.02, -0.02, 1, 998.11, 696.67)">S</text><text class="cls-17" transform="translate(1025.3 697.11) rotate(-1.05)">K</text><text class="cls-17" transform="translate(1056.19 696.44) rotate(-3.19)">E</text><text class="cls-17" transform="translate(1083.34 694.89) rotate(-5.73)">R</text><text class="cls-17" transform="matrix(0.99, -0.16, 0.16, 0.99, 1114.98, 691.56)">S</text><path class="cls-18" d="M1163.26,611c0,15.46-61,28-136.35,28-65.35,0-120-9.44-133.26-22-2-1.92-3.09-3.91-3.09-6a5.92,5.92,0,0,1,.27-1.76,2.25,2.25,0,0,1,.08-.24c1.05-3.08,4.54-6,10.06-8.75A81,81,0,0,1,911.76,596l.46-.15a182.82,182.82,0,0,1,18.21-4.64l.7-.14c24.62-5,58.45-8.07,95.78-8.07,72,0,131,11.47,136,26a2.25,2.25,0,0,1,.08.24A5.92,5.92,0,0,1,1163.26,611Z"/><path class="cls-19" d="M1144.91,611c0,2.92-2.79,5.71-7.89,8.28l-.91.45c-6,2.84-14.78,5.39-25.72,7.52l-1.13.22-.83.16-3.9.69c-1.22.21-2.47.41-3.74.61l-.44.07c-5.39.84-11.16,1.58-17.26,2.23l-.59.06q-3.87.4-7.91.75l-.53.05H1074l-.89.08q-3.43.29-7,.53l-.75,0q-8,.54-16.42.85l-.6,0-1.49,0-.86,0q-5.54.18-11.24.25h-.69c-1.44,0-2.88,0-4.33,0h-5.46c-2.89,0-5.76,0-8.59-.1h-.63q-4.62-.09-9.13-.24l-1.09,0c-2.56-.09-5.1-.2-7.6-.33l-.7,0c-1.43-.07-2.84-.15-4.25-.24l-1-.06h0l-.54,0q-1.83-.1-3.63-.24h0l-.51,0h-.16c-2-.15-4-.3-6-.47l-.84-.07-2.86-.25-1.43-.14c-3.63-.34-7.16-.73-10.57-1.14l-1.41-.17c-3-.38-5.87-.77-8.66-1.2-1.26-.19-2.49-.38-3.7-.58-25.68-4.22-42-10.53-42-17.59,0-8.63,24.38-16.15,60.46-20.08l1.12-.12.9-.09h.12c.43-.06.86-.1,1.3-.15,16.21-1.64,34.6-2.56,54.1-2.56C1092.08,588,1144.91,598.3,1144.91,611Z"/><path class="cls-20" d="M1116.34,617.27l-3.58,1.55-.68.3-.52.22a2.86,2.86,0,0,0-1.65,2.06l-.48,2.47-.52,2.64a1.17,1.17,0,0,1-.05.2,2.78,2.78,0,0,1-.43.92l-3.9.69a2.93,2.93,0,0,1-.53-.47l-2-2.3-.33-.37-1.09-1.23a2.85,2.85,0,0,0-2.47-.94l-5.17.64a2.84,2.84,0,0,1-2.79-4.26l2.64-4.49a2.77,2.77,0,0,0,.38-1.21,2.62,2.62,0,0,0-.09-1h0a3.61,3.61,0,0,0-.16-.42l-2.2-4.72a2.84,2.84,0,0,1,3.19-4l5.09,1.13a2.84,2.84,0,0,0,2.54-.69l3.81-3.55a2.84,2.84,0,0,1,4.76,1.8l.5,5.19a2.81,2.81,0,0,0,.48,1.32,2.71,2.71,0,0,0,.59.63,3.19,3.19,0,0,0,.38.26l4.55,2.52A2.84,2.84,0,0,1,1116.34,617.27Z"/><path class="cls-21" d="M1104,626.92l-3.24-3.66a2.65,2.65,0,0,0-2.31-.87l-4.85.59a2.66,2.66,0,0,1-2.61-4l2.48-4.21a2.67,2.67,0,0,0,.12-2.47l-2.06-4.43a2.66,2.66,0,0,1,3-3.72l4.77,1.06a2.68,2.68,0,0,0,2.39-.65l3.57-3.33a2.66,2.66,0,0,1,4.46,1.69l.47,4.86a2.64,2.64,0,0,0,1.36,2.07l4.27,2.37a2.67,2.67,0,0,1-.23,4.77l-4.48,1.94a2.69,2.69,0,0,0-1.55,1.94l-.94,4.79A2.66,2.66,0,0,1,1104,626.92Z"/><path class="cls-20" d="M1137,619.28l-.91.45c-6,2.84-14.78,5.39-25.72,7.52l-1.13.22a3.07,3.07,0,0,1-.4-.76,2.82,2.82,0,0,1,.26-2.32l.31-.52,2.33-4a3.13,3.13,0,0,0,.32-.78,2.91,2.91,0,0,0,.08-.66,2.8,2.8,0,0,0-.27-1.2l-2.2-4.72a2.82,2.82,0,0,1,.9-3.49,2.78,2.78,0,0,1,.47-.28,2.85,2.85,0,0,1,1.82-.2l5.09,1.13a2.84,2.84,0,0,0,2.54-.69l3.81-3.55a2.84,2.84,0,0,1,4.76,1.8l.5,5.19a2.85,2.85,0,0,0,1.45,2.21l4.55,2.52A2.85,2.85,0,0,1,1137,619.28Z"/><path class="cls-21" d="M1136.11,619.73c-6,2.84-14.78,5.39-25.72,7.52a2.64,2.64,0,0,1-.45-3.26l2.48-4.21a2.46,2.46,0,0,0,.34-1,2.22,2.22,0,0,0,0-.63,2.49,2.49,0,0,0-.23-.88l-2.06-4.43a2.62,2.62,0,0,1,.74-3.18,1.84,1.84,0,0,1,.43-.3,2.6,2.6,0,0,1,1.82-.24l4.77,1.06a2.66,2.66,0,0,0,2.38-.65l3.58-3.33a2.66,2.66,0,0,1,4.46,1.69l.47,4.86a2.65,2.65,0,0,0,1.35,2.07l4.27,2.37A2.61,2.61,0,0,1,1136.11,619.73Z"/><path class="cls-20" d="M1000,612.85l-3.45-3.9a2.85,2.85,0,0,0-2.47-.94l-5.17.64a2.84,2.84,0,0,1-2.78-4.26l2.64-4.49a2.86,2.86,0,0,0,.13-2.64l-2.2-4.72a2.84,2.84,0,0,1,3.18-4L995,589.7a2.87,2.87,0,0,0,2.55-.69l3.81-3.55a2.84,2.84,0,0,1,4.76,1.8l.5,5.19a2.86,2.86,0,0,0,1.44,2.21l4.56,2.52a2.84,2.84,0,0,1-.25,5.09l-4.78,2.07a2.88,2.88,0,0,0-1.65,2.06l-1,5.11A2.84,2.84,0,0,1,1000,612.85Z"/><path class="cls-21" d="M1000,611.92l-3.24-3.66a2.65,2.65,0,0,0-2.31-.87l-4.85.59a2.66,2.66,0,0,1-2.61-4l2.48-4.21a2.67,2.67,0,0,0,.12-2.47l-2.06-4.43a2.66,2.66,0,0,1,3-3.72l4.77,1.06a2.68,2.68,0,0,0,2.39-.65l3.57-3.33a2.66,2.66,0,0,1,4.46,1.69l.47,4.86a2.64,2.64,0,0,0,1.36,2.07l4.27,2.37a2.67,2.67,0,0,1-.23,4.77l-4.48,1.94a2.69,2.69,0,0,0-1.55,1.94l-.94,4.79A2.66,2.66,0,0,1,1000,611.92Z"/><path class="cls-20" d="M1081.34,626.27l-.94.41-.6.26-3.24,1.4a2.86,2.86,0,0,0-1.65,2.06l-.32,1.64-.53.05,0,.21a1.55,1.55,0,0,0,0-.21l-.89.08q-3.43.29-7,.53l-.75,0a2.84,2.84,0,0,0-2.28-.74l-5.17.64a2.84,2.84,0,0,1-2.79-4.26l2.64-4.49a2.75,2.75,0,0,0,.37-1.81,2.62,2.62,0,0,0-.12-.54l-.12-.29-.27-.58-.26-.56-.78-1.67-.25-.54-.64-1.37a2.83,2.83,0,0,1,.69-3.32,3.08,3.08,0,0,1,.41-.3,2.8,2.8,0,0,1,2.09-.35l1.16.26.52.11,3.41.76a2.84,2.84,0,0,0,2.54-.69l3.81-3.55a.69.69,0,0,1,.13-.11,1.7,1.7,0,0,1,.39-.27,2.83,2.83,0,0,1,4.24,2.18l.5,5.19a2.85,2.85,0,0,0,1.45,2.21l.83.46.47.26.9.5.65.36,1.7.94A2.84,2.84,0,0,1,1081.34,626.27Z"/><path class="cls-21" d="M1080.52,626l-.63.27-.6.26-3.25,1.41a2.69,2.69,0,0,0-1.55,1.94l-.43,2.21,0,.21a1.55,1.55,0,0,0,0-.21l-.89.08q-3.43.29-7,.53l-.39-.44a2.66,2.66,0,0,0-2.31-.87l-4.85.59a2.66,2.66,0,0,1-2.62-4l2.48-4.21a2.67,2.67,0,0,0,.24-2.17,1.88,1.88,0,0,0-.12-.3l-.08-.18-.26-.54-.29-.62-.85-1.84-.22-.47-.36-.78a2.65,2.65,0,0,1,.55-3,3,3,0,0,1,.39-.32,2.61,2.61,0,0,1,2-.38l.33.07.52.12,3.92.87a2.66,2.66,0,0,0,2.38-.65l3.58-3.33a2.94,2.94,0,0,1,.41-.31,1.71,1.71,0,0,1,.4-.21,2.67,2.67,0,0,1,3.65,2.21l.47,4.86a2.65,2.65,0,0,0,1.35,2.07l1.29.72.47.26.35.19.67.37,1.49.83A2.66,2.66,0,0,1,1080.52,626Z"/><path class="cls-20" d="M1046.85,633.67l-.86,0q-5.54.18-11.24.25h-.69c-1.44,0-2.88,0-4.33,0h-4.43l-.35-.74-.35-.76-.91-2a2.78,2.78,0,0,1,0-2.47,2.59,2.59,0,0,1,.34-.52,2.8,2.8,0,0,1,2.81-1l5,1.11.1,0a3,3,0,0,0,.85.06,2.81,2.81,0,0,0,1.69-.75l3.81-3.55a2.79,2.79,0,0,1,2.77-.63h0a2.5,2.5,0,0,1,.72.34,2.74,2.74,0,0,1,1.26,2.09l.06.61.12,1.26,0,.18h0l0,.4.26,2.73a2.85,2.85,0,0,0,1.45,2.21Z"/><path class="cls-21" d="M1046,633.7q-5.54.18-11.24.25h-.69c-1.44,0-2.88,0-4.33,0h-3.8l-.69-1.48-.31-.67-.45-1a2.6,2.6,0,0,1,.25-2.66,2.19,2.19,0,0,1,.46-.5h0a2.55,2.55,0,0,1,2.27-.56l4.17.93.6.13a1.55,1.55,0,0,0,.31,0,2.6,2.6,0,0,0,2.07-.69l3.58-3.33a2.66,2.66,0,0,1,3.54-.08h0a2.68,2.68,0,0,1,.91,1.77v.13h0l.11,1.13.06.58.29,3a2.65,2.65,0,0,0,1.35,2.07Z"/><path class="cls-20" d="M1005,624.85l-3.45-3.9a2.85,2.85,0,0,0-2.47-.94l-5.17.64a2.84,2.84,0,0,1-2.78-4.26l2.64-4.49a2.86,2.86,0,0,0,.13-2.64l-2.2-4.72a2.84,2.84,0,0,1,3.18-4l5.09,1.13a2.87,2.87,0,0,0,2.55-.69l3.81-3.55a2.84,2.84,0,0,1,4.76,1.8l.5,5.19a2.86,2.86,0,0,0,1.44,2.21l4.56,2.52a2.84,2.84,0,0,1-.25,5.09l-4.78,2.07a2.88,2.88,0,0,0-1.65,2.06l-1,5.11A2.84,2.84,0,0,1,1005,624.85Z"/><path class="cls-21" d="M1005,623.92l-3.24-3.66a2.65,2.65,0,0,0-2.31-.87l-4.85.59a2.66,2.66,0,0,1-2.61-4l2.48-4.21a2.67,2.67,0,0,0,.12-2.47l-2.06-4.43a2.66,2.66,0,0,1,3-3.72l4.77,1.06a2.68,2.68,0,0,0,2.39-.65l3.57-3.33a2.66,2.66,0,0,1,4.46,1.69l.47,4.86a2.64,2.64,0,0,0,1.36,2.07l4.27,2.37a2.67,2.67,0,0,1-.23,4.77l-4.48,1.94a2.69,2.69,0,0,0-1.55,1.94l-.94,4.79A2.66,2.66,0,0,1,1005,623.92Z"/><path class="cls-20" d="M1032.82,627.76a2.42,2.42,0,0,1-.27.5,2.76,2.76,0,0,1-1.21,1l-3.27,1.41-.46.21-1,.45a2.86,2.86,0,0,0-1.32,1.18,2.59,2.59,0,0,0-.29.73.83.83,0,0,0,0,.15l-.12.59h-.52c-2.89,0-5.76,0-8.59-.1h-.63q-4.62-.09-9.13-.24l-1.09,0a2.79,2.79,0,0,1,.29-2.2l1.08-1.84.38-.64,1.18-2a2.85,2.85,0,0,0,.39-1.29,2.73,2.73,0,0,0-.13-1,1.46,1.46,0,0,0-.07-.19l-.06-.14-1-2.2-1-2.2-.15-.32a2.7,2.7,0,0,1-.23-.75.13.13,0,0,1,0-.06,2.84,2.84,0,0,1,3.43-3.16l2.74.61.88.19,1.47.33a2.84,2.84,0,0,0,2.54-.69l2.82-2.63.71-.66.28-.26a2.75,2.75,0,0,1,1.73-.75,1.62,1.62,0,0,1,.49,0h0a2.75,2.75,0,0,1,1.82.92,2.23,2.23,0,0,1,.38.53,2.73,2.73,0,0,1,.33,1.09l.5,5.19a2.85,2.85,0,0,0,1.45,2.21l4.55,2.52A2.84,2.84,0,0,1,1032.82,627.76Z"/><path class="cls-21" d="M1031.87,627.68a2.06,2.06,0,0,1-.23.41,2.61,2.61,0,0,1-1.12.91l-2.7,1.17-.46.2-1.32.57a2.67,2.67,0,0,0-1.11.91,2.43,2.43,0,0,0-.33.64,2.85,2.85,0,0,0-.11.39l-.22,1.11c-2.89,0-5.76,0-8.59-.1h-.63q-4.62-.09-9.13-.24a2.62,2.62,0,0,1,0-2.65l.84-1.43.55-.92,1.09-1.86a2.21,2.21,0,0,0,.28-.65,2.76,2.76,0,0,0,.08-.86,2.35,2.35,0,0,0-.2-.86.42.42,0,0,0,0-.1h0l-.68-1.47-1.37-3a2.6,2.6,0,0,1-.1-.25,2.66,2.66,0,0,1,3.09-3.47l1.72.38.75.17,2.3.51a2.66,2.66,0,0,0,2.38-.65l3.22-3,.36-.33a4.12,4.12,0,0,1,.41-.32,2.61,2.61,0,0,1,1.57-.39,3,3,0,0,1,.51.08,2.64,2.64,0,0,1,.47.17h0a3,3,0,0,1,.69.5,2.56,2.56,0,0,1,.79,1.65l.47,4.86a2.65,2.65,0,0,0,1.35,2.07l4.27,2.37A2.65,2.65,0,0,1,1031.87,627.68Z"/><path class="cls-20" d="M1074,632.09l-.89.08q-3.43.29-7,.53l-.75,0q-8,.54-16.42.85l-.6,0,.42-.72a2.81,2.81,0,0,0,.13-2.64l-.94-2-.36-.78-.9-1.93a2.83,2.83,0,0,1,3.19-4l.88.2h0l.77.17,3.43.76a2.84,2.84,0,0,0,2.54-.69l.5-.46.45-.42,2.67-2.5.19-.17a2.52,2.52,0,0,1,.68-.47,2.82,2.82,0,0,1,2-.19h0a3,3,0,0,1,1,.47,2.77,2.77,0,0,1,1.11,2l.5,5.19a2.85,2.85,0,0,0,1.45,2.21l4.55,2.52A2.78,2.78,0,0,1,1074,632.09Z"/><path class="cls-21" d="M1073.09,632.17q-3.43.29-7,.53l-.75,0q-8,.54-16.42.85l.48-.82a2.64,2.64,0,0,0,.12-2.47l-1.2-2.58L1048,627l-.53-1.14a2.66,2.66,0,0,1,3-3.72h0l.65.14,4.09.91a2.66,2.66,0,0,0,2.38-.65l.51-.48.53-.48,2.54-2.37a2.59,2.59,0,0,1,1.23-.65l.51-.07h.06a2.66,2.66,0,0,1,2.66,2.41l.47,4.86a2.65,2.65,0,0,0,1.35,2.07l4.27,2.37A2.62,2.62,0,0,1,1073.09,632.17Z"/><path class="cls-20" d="M1032,617.85l-3.45-3.9a2.85,2.85,0,0,0-2.47-.94l-5.17.64a2.84,2.84,0,0,1-2.78-4.26l2.64-4.49a2.86,2.86,0,0,0,.13-2.64l-2.2-4.72a2.84,2.84,0,0,1,3.18-4l5.09,1.13a2.87,2.87,0,0,0,2.55-.69l3.81-3.55a2.84,2.84,0,0,1,4.76,1.8l.5,5.19a2.86,2.86,0,0,0,1.44,2.21l4.56,2.52a2.84,2.84,0,0,1-.25,5.09l-4.78,2.07a2.88,2.88,0,0,0-1.65,2.06l-1,5.11A2.84,2.84,0,0,1,1032,617.85Z"/><path class="cls-21" d="M1032,616.92l-3.24-3.66a2.65,2.65,0,0,0-2.31-.87l-4.85.59a2.66,2.66,0,0,1-2.61-4l2.48-4.21a2.67,2.67,0,0,0,.12-2.47l-2.06-4.43a2.66,2.66,0,0,1,3-3.72l4.77,1.06a2.68,2.68,0,0,0,2.39-.65l3.57-3.33a2.66,2.66,0,0,1,4.46,1.69l.47,4.86a2.64,2.64,0,0,0,1.36,2.07l4.27,2.37a2.67,2.67,0,0,1-.23,4.77l-4.48,1.94a2.69,2.69,0,0,0-1.55,1.94l-.94,4.79A2.66,2.66,0,0,1,1032,616.92Z"/><path class="cls-20" d="M1058.1,620.61l-5.16.72a2.83,2.83,0,0,0-2.15,1.54l-2.33,4.66a2.83,2.83,0,0,1-5.08,0l-2.29-4.68a2.81,2.81,0,0,0-2.12-1.56l-5.15-.78a2.84,2.84,0,0,1-1.55-4.85L1036,612a2.86,2.86,0,0,0,.83-2.51l-.86-5.14a2.84,2.84,0,0,1,4.14-3l4.59,2.45a2.83,2.83,0,0,0,2.64,0l4.63-2.4a2.84,2.84,0,0,1,4.1,3l-.91,5.13a2.85,2.85,0,0,0,.8,2.51l3.71,3.66A2.84,2.84,0,0,1,1058.1,620.61Z"/><path class="cls-21" d="M1057.3,620.13l-4.84.68a2.65,2.65,0,0,0-2,1.44l-2.18,4.37a2.66,2.66,0,0,1-4.77,0l-2.14-4.39a2.68,2.68,0,0,0-2-1.46l-4.83-.73a2.66,2.66,0,0,1-1.45-4.54l3.52-3.39a2.68,2.68,0,0,0,.78-2.35l-.8-4.82a2.65,2.65,0,0,1,3.87-2.78l4.31,2.29a2.63,2.63,0,0,0,2.47,0l4.34-2.25a2.66,2.66,0,0,1,3.84,2.83l-.85,4.81a2.64,2.64,0,0,0,.76,2.35l3.47,3.43A2.66,2.66,0,0,1,1057.3,620.13Z"/><path class="cls-20" d="M989.1,615.61l-5.16.72a2.83,2.83,0,0,0-2.15,1.54l-2.33,4.66a2.83,2.83,0,0,1-5.08,0l-2.29-4.68a2.81,2.81,0,0,0-2.12-1.56l-5.15-.78a2.84,2.84,0,0,1-1.55-4.85L967,607a2.86,2.86,0,0,0,.83-2.51l-.86-5.14a2.84,2.84,0,0,1,4.14-3l4.59,2.45a2.83,2.83,0,0,0,2.64,0l4.63-2.4a2.84,2.84,0,0,1,4.1,3l-.91,5.13a2.85,2.85,0,0,0,.8,2.51l3.71,3.66A2.84,2.84,0,0,1,989.1,615.61Z"/><path class="cls-21" d="M988.3,615.13l-4.84.68a2.65,2.65,0,0,0-2,1.44l-2.18,4.37a2.66,2.66,0,0,1-4.77,0l-2.14-4.39a2.68,2.68,0,0,0-2-1.46l-4.83-.73a2.66,2.66,0,0,1-1.45-4.54l3.52-3.39a2.68,2.68,0,0,0,.78-2.35l-.8-4.82a2.65,2.65,0,0,1,3.87-2.78l4.31,2.29a2.63,2.63,0,0,0,2.47,0l4.34-2.25a2.66,2.66,0,0,1,3.84,2.83l-.85,4.81a2.64,2.64,0,0,0,.76,2.35l3.47,3.43A2.66,2.66,0,0,1,988.3,615.13Z"/><path class="cls-20" d="M987.7,612.56l-5.2-.11a2.86,2.86,0,0,0-2.37,1.17l-3,4.23a2.84,2.84,0,0,1-5-.85l-1.5-5a2.84,2.84,0,0,0-1.85-1.89l-5-1.59a2.84,2.84,0,0,1-.75-5l4.28-3a2.84,2.84,0,0,0,1.22-2.34l0-5.21a2.84,2.84,0,0,1,4.56-2.27l4.14,3.15a2.84,2.84,0,0,0,2.61.44l5-1.62a2.83,2.83,0,0,1,3.56,3.63l-1.72,4.91a2.85,2.85,0,0,0,.39,2.62l3.08,4.2A2.84,2.84,0,0,1,987.7,612.56Z"/><path class="cls-21" d="M987,612l-4.88-.11a2.68,2.68,0,0,0-2.22,1.11l-2.85,4a2.67,2.67,0,0,1-4.71-.79l-1.4-4.68a2.68,2.68,0,0,0-1.74-1.77l-4.65-1.49a2.66,2.66,0,0,1-.7-4.72l4-2.78A2.67,2.67,0,0,0,969,598.5l0-4.89a2.66,2.66,0,0,1,4.27-2.12l3.89,3a2.64,2.64,0,0,0,2.44.41l4.64-1.52a2.66,2.66,0,0,1,3.34,3.4L986,601.34a2.68,2.68,0,0,0,.36,2.45l2.89,3.94A2.66,2.66,0,0,1,987,612Z"/><path class="cls-20" d="M1006.78,629.56h-.58l-4.71-.1a2.84,2.84,0,0,0-2.36,1.17l-1.9,2.64-.7,0c-1.43-.07-2.84-.15-4.25-.24l-1-.06h0l-.54,0L989.56,629a2.82,2.82,0,0,0-1.25-1.61,2.37,2.37,0,0,0-.56-.26l0,0-5-1.59a2.83,2.83,0,0,1-.75-5l4.28-3a2.91,2.91,0,0,0,1.15-1.7,3,3,0,0,0,.07-.6V610a3,3,0,0,1,.06-.61,3.14,3.14,0,0,1,.26-.73l.09-.15a2.83,2.83,0,0,1,.2-.28,2.79,2.79,0,0,1,.9-.74,2,2,0,0,1,.48-.2,2.79,2.79,0,0,1,2.57.44l1.74,1.32.9.69,1.5,1.14a2.82,2.82,0,0,0,2.6.44l5-1.62a2.84,2.84,0,0,1,3.57,3.63l-1.06,3-.66,1.89a2.36,2.36,0,0,0-.12.51.09.09,0,0,0,0,0,2.45,2.45,0,0,0,0,.81,2.84,2.84,0,0,0,.51,1.25l.88,1.21,1.65,2.25.07.1.47.64h0A2.83,2.83,0,0,1,1006.78,629.56Z"/><path class="cls-21" d="M1008.7,626.13a2.63,2.63,0,0,1-2.12,2.78,2.88,2.88,0,0,1-.59.05l-4.88-.11a2.66,2.66,0,0,0-2.22,1.11l-2.36,3.27c-1.43-.07-2.84-.15-4.25-.24l-1-.06h0v0l-.84-2.8-.5-1.66a2.62,2.62,0,0,0-1.21-1.53,2.45,2.45,0,0,0-.52-.24l-.1,0-4.55-1.46a2.66,2.66,0,0,1-.7-4.72l4-2.78a2.64,2.64,0,0,0,1.13-1.92,2.44,2.44,0,0,0,0-.27v-4.89a2.54,2.54,0,0,1,.15-.88,2.32,2.32,0,0,1,.24-.53,3.25,3.25,0,0,1,.31-.4,2.78,2.78,0,0,1,.79-.58,2.35,2.35,0,0,1,.56-.2,2.58,2.58,0,0,1,2.22.47l1.85,1.4.69.53,1.34,1a2.66,2.66,0,0,0,2.45.41l4.63-1.52a2.66,2.66,0,0,1,3.35,3.4l-1.62,4.61,0,.13a2.35,2.35,0,0,0-.09.87,2.67,2.67,0,0,0,.5,1.45l2.64,3.61.12.17.12.16a2.53,2.53,0,0,1,.36.69A2.2,2.2,0,0,1,1008.7,626.13Z"/><path class="cls-20" d="M1073,622.85l-3.45-3.9a2.85,2.85,0,0,0-2.47-.94l-5.17.64a2.84,2.84,0,0,1-2.78-4.26l2.64-4.49a2.86,2.86,0,0,0,.13-2.64l-2.2-4.72a2.84,2.84,0,0,1,3.18-4l5.09,1.13a2.87,2.87,0,0,0,2.55-.69l3.81-3.55a2.84,2.84,0,0,1,4.76,1.8l.5,5.19a2.86,2.86,0,0,0,1.44,2.21l4.56,2.52a2.84,2.84,0,0,1-.25,5.09l-4.78,2.07a2.88,2.88,0,0,0-1.65,2.06l-1,5.11A2.84,2.84,0,0,1,1073,622.85Z"/><path class="cls-21" d="M1073,621.92l-3.24-3.66a2.65,2.65,0,0,0-2.31-.87l-4.85.59a2.66,2.66,0,0,1-2.61-4l2.48-4.21a2.67,2.67,0,0,0,.12-2.47l-2.06-4.43a2.66,2.66,0,0,1,3-3.72l4.77,1.06a2.68,2.68,0,0,0,2.39-.65l3.57-3.33a2.66,2.66,0,0,1,4.46,1.69l.47,4.86a2.64,2.64,0,0,0,1.36,2.07l4.27,2.37a2.67,2.67,0,0,1-.23,4.77l-4.48,1.94a2.69,2.69,0,0,0-1.55,1.94l-.94,4.79A2.66,2.66,0,0,1,1073,621.92Z"/><path class="cls-20" d="M1104.69,622.31l-2.34,2.79-.38.45-.63.75a2.83,2.83,0,0,0-.56,2.58v0l-.44.07c-5.39.84-11.16,1.58-17.26,2.23l-.59.06,0-.59a2.85,2.85,0,0,0-1.06-2.42l-1.68-1.34-.51-.41-1.89-1.5a2.78,2.78,0,0,1-1-1.53,2.88,2.88,0,0,1,1.19-3.06,3,3,0,0,1,.57-.28l.32-.1.1,0,.64-.15,4.31-1.08a2.82,2.82,0,0,0,2-1.75l1.83-4.88a2.84,2.84,0,0,1,5.07-.5l.64,1,.71,1.15,1.4,2.24a2.86,2.86,0,0,0,2.28,1.34l5.21.23A2.84,2.84,0,0,1,1104.69,622.31Z"/><path class="cls-21" d="M1103.92,622.47l-1.9,2.26-.38.45-.86,1a2.65,2.65,0,0,0-.53,2.42l.1.37c-5.39.84-11.16,1.58-17.26,2.23l.06-.89a2.67,2.67,0,0,0-1-2.27l-1.75-1.39-.51-.41-1.56-1.24a2.58,2.58,0,0,1-1-2.29,2.62,2.62,0,0,1,.61-1.5,2.47,2.47,0,0,1,1.3-.84l.09,0,.53-.13,4.21-1a2.67,2.67,0,0,0,1.85-1.65l1.71-4.57a2.66,2.66,0,0,1,4.75-.47l.74,1.19.46.73,1.38,2.22a2.69,2.69,0,0,0,2.14,1.25l4.88.22A2.65,2.65,0,0,1,1103.92,622.47Z"/><path class="cls-20" d="M1018.69,630.31l-3,3.58h-.63q-4.62-.09-9.13-.24l-1.09,0c-2.56-.09-5.1-.2-7.6-.33l-.7,0c-1.43-.07-2.84-.15-4.25-.24l-1-.06h0v0a2.83,2.83,0,0,1,1.23-4.85l5-1.26a2.82,2.82,0,0,0,2-1.75l1.67-4.45.16-.43a.82.82,0,0,1,.09-.19,2.84,2.84,0,0,1,3.47-1.51,2.5,2.5,0,0,1,.55.26h0a2.75,2.75,0,0,1,.91.89l0,0,2.6,4.18.15.23a2.46,2.46,0,0,0,.34.44,2.85,2.85,0,0,0,1.94.9l5.21.23a3,3,0,0,1,1,.23,2.86,2.86,0,0,1,1,4.43Z"/><path class="cls-21" d="M1017.92,630.47l-2.87,3.41q-4.62-.09-9.13-.24l-1.09,0c-2.56-.09-5.1-.2-7.6-.33l-.7,0c-1.43-.07-2.84-.15-4.25-.24a2.66,2.66,0,0,1,1.07-4.62l4.74-1.18a2.67,2.67,0,0,0,1.85-1.65l1.69-4.5,0-.07a2.16,2.16,0,0,1,.26-.5,2.63,2.63,0,0,1,2.9-1.13,2.33,2.33,0,0,1,.66.26,2.26,2.26,0,0,1,.37.26,2.5,2.5,0,0,1,.56.64l1.45,2.33.84,1.35.29.46a1.86,1.86,0,0,0,.21.28,2.64,2.64,0,0,0,1.93,1l4.88.22A2.65,2.65,0,0,1,1017.92,630.47Z"/><path class="cls-20" d="M968,618.85l-3.45-3.9a2.85,2.85,0,0,0-2.47-.94l-5.17.64a2.84,2.84,0,0,1-2.78-4.26l2.64-4.49a2.86,2.86,0,0,0,.13-2.64l-2.2-4.72a2.84,2.84,0,0,1,3.18-4L963,595.7a2.87,2.87,0,0,0,2.55-.69l3.81-3.55a2.84,2.84,0,0,1,4.76,1.8l.5,5.19a2.86,2.86,0,0,0,1.44,2.21l4.56,2.52a2.84,2.84,0,0,1-.25,5.09l-4.78,2.07a2.88,2.88,0,0,0-1.65,2.06l-1,5.11A2.84,2.84,0,0,1,968,618.85Z"/><path class="cls-21" d="M968,617.92l-3.24-3.66a2.65,2.65,0,0,0-2.31-.87l-4.85.59a2.66,2.66,0,0,1-2.61-4l2.48-4.21a2.67,2.67,0,0,0,.12-2.47l-2.06-4.43a2.66,2.66,0,0,1,3-3.72l4.77,1.06a2.68,2.68,0,0,0,2.39-.65l3.57-3.33a2.66,2.66,0,0,1,4.46,1.69l.47,4.86a2.64,2.64,0,0,0,1.36,2.07l4.27,2.37a2.67,2.67,0,0,1-.23,4.77l-4.48,1.94a2.69,2.69,0,0,0-1.55,1.94l-.94,4.79A2.66,2.66,0,0,1,968,617.92Z"/><path class="cls-20" d="M994.34,624.27l-4.78,2.07a2.79,2.79,0,0,0-.85.58,2.68,2.68,0,0,0-.4.49,2.87,2.87,0,0,0-.4,1l-.56,2.86-.27,1.39-.51,0h-.16c-2-.15-4-.3-6-.47l-.84-.07-1-1.12a2.77,2.77,0,0,0-1-.72,2.82,2.82,0,0,0-.95-.23,2.35,2.35,0,0,0-.53,0l-5.17.64a2.84,2.84,0,0,1-3-1.94,2.88,2.88,0,0,1-.12-1.31,3.09,3.09,0,0,1,.37-1l0-.06,2.61-4.43a1.62,1.62,0,0,0,.17-.35,2.76,2.76,0,0,0,.11-1.9,3.12,3.12,0,0,0-.15-.39l-.25-.53-1.18-2.55-.29-.62-.48-1a2.37,2.37,0,0,1-.13-.34,1.85,1.85,0,0,1-.1-.44,2.84,2.84,0,0,1,1.42-2.9,2.7,2.7,0,0,1,.61-.25,2.82,2.82,0,0,1,1.39,0l2,.43.67.15,2.47.55a2.84,2.84,0,0,0,2.54-.69l3.81-3.55a2.84,2.84,0,0,1,4.58,1,1.93,1.93,0,0,1,.11.34,2.63,2.63,0,0,1,.07.42l0,.47.18,1.92.08.84.19,2a2.94,2.94,0,0,0,.12.59,2.88,2.88,0,0,0,.27.59,2.84,2.84,0,0,0,1.06,1l.79.44.76.42,3,1.66a2.74,2.74,0,0,1,.83.7,2.57,2.57,0,0,1,.34.54A2.83,2.83,0,0,1,994.34,624.27Z"/><path class="cls-21" d="M993.52,624,989,625.94a2.67,2.67,0,0,0-.95.71,2.45,2.45,0,0,0-.34.5,2.65,2.65,0,0,0-.26.73l-.45,2.31-.47,2.43h-.16c-2-.15-4-.3-6-.47l-1.66-1.88a2.68,2.68,0,0,0-1.13-.75,2.89,2.89,0,0,0-.88-.14l-.3,0-4.85.59a2.66,2.66,0,0,1-2.62-4l2-3.47.44-.74a2,2,0,0,0,.2-.42,2.61,2.61,0,0,0,0-2l0-.09-.37-.79-1-2.22-.3-.64-.36-.78a2.35,2.35,0,0,1-.23-.91,1.42,1.42,0,0,1,0-.46,2.71,2.71,0,0,1,1.14-1.94,2.12,2.12,0,0,1,.49-.27,2.6,2.6,0,0,1,1.6-.14l1.16.26.6.13,3,.67a2.66,2.66,0,0,0,2.38-.65l3.58-3.33a2.66,2.66,0,0,1,4.35,1.14,3.35,3.35,0,0,1,.11.55l.18,1.91.07.71.08.75.14,1.49a2,2,0,0,0,.06.35,2.27,2.27,0,0,0,.2.57,2.58,2.58,0,0,0,1.09,1.15l1.25.7.94.52,2.08,1.15a2.83,2.83,0,0,1,.86.74,3.43,3.43,0,0,1,.31.56A2.66,2.66,0,0,1,993.52,624Z"/><path class="cls-20" d="M851.7,660.65l-.54.91a2.84,2.84,0,0,0-1.25,1.84l-.46,2.33-.54,2.78a2.84,2.84,0,0,1-4.68,1.57l-.23-.23-3.45-3.9a2.85,2.85,0,0,0-2.47-.94l-5.17.64a2.84,2.84,0,0,1-2.79-4.26l2.64-4.49a2.81,2.81,0,0,0,.13-2.64l-2.2-4.72a2.84,2.84,0,0,1,3.19-4L839,646.7a2.79,2.79,0,0,0,1.57-.1,5.26,5.26,0,0,0-.36.65,3.86,3.86,0,0,0-.19,3.8,3.6,3.6,0,0,0,3,1.42,3.35,3.35,0,0,0,.18,2.91,3.73,3.73,0,0,0,3.31,1.44,3.2,3.2,0,0,0,.35,2.44c.72,1.14,2.23,1.62,4.08,1.48Z"/><path class="cls-21" d="M851.7,660.65l-.66.29,0,0a2.68,2.68,0,0,0-1.5,1.91l-.66,3.38-.27,1.41a2.66,2.66,0,0,1-3.71,1.91,2.52,2.52,0,0,1-.89-.66l-3.24-3.66a2.66,2.66,0,0,0-2.31-.87l-4.85.59a2.66,2.66,0,0,1-2.62-4l2.48-4.21a2.64,2.64,0,0,0,.12-2.47l-2.06-4.43a2.66,2.66,0,0,1,3-3.72l4.77,1.06a2.48,2.48,0,0,0,.94,0,3.86,3.86,0,0,0-.19,3.8,3.6,3.6,0,0,0,3,1.42,3.35,3.35,0,0,0,.18,2.91,3.73,3.73,0,0,0,3.31,1.44,3.2,3.2,0,0,0,.35,2.44c.72,1.14,2.23,1.62,4.08,1.48Z"/><path class="cls-20" d="M840.7,384.65l-.77.09c-1.85.14-3.36-.34-4.08-1.48a3.2,3.2,0,0,1-.35-2.44,3.73,3.73,0,0,1-3.31-1.44,3.35,3.35,0,0,1-.18-2.91,3.6,3.6,0,0,1-3-1.42,3.86,3.86,0,0,1,.19-3.8,5.26,5.26,0,0,1,.36-.65,2.79,2.79,0,0,1-1.57.1l-5.09-1.13a2.84,2.84,0,0,0-3.19,4l2.2,4.72a2.81,2.81,0,0,1-.13,2.64l-2.64,4.49a2.84,2.84,0,0,0,2.79,4.26l5.17-.64a2.85,2.85,0,0,1,2.47.94l3.45,3.9a2.84,2.84,0,0,0,4.91-1.34l1-5.11a2.84,2.84,0,0,1,1.25-1.84Z"/><path class="cls-21" d="M840.7,384.65l-.66.29,0,0a2.68,2.68,0,0,0-1.5,1.91l-.93,4.79a2.66,2.66,0,0,1-4.6,1.25l-3.24-3.66a2.66,2.66,0,0,0-2.31-.87l-4.85.59a2.66,2.66,0,0,1-2.62-4l2.48-4.21a2.64,2.64,0,0,0,.12-2.47l-2.06-4.43a2.66,2.66,0,0,1,3-3.72l4.77,1.06a2.48,2.48,0,0,0,.94,0,3.86,3.86,0,0,0-.19,3.8,3.6,3.6,0,0,0,3,1.42,3.35,3.35,0,0,0,.18,2.91,3.73,3.73,0,0,0,3.31,1.44,3.2,3.2,0,0,0,.35,2.44c.72,1.14,2.23,1.62,4.08,1.48Z"/><path class="cls-20" d="M1016,631.85l-3.45-3.9a2.85,2.85,0,0,0-2.47-.94l-5.17.64a2.84,2.84,0,0,1-2.78-4.26l2.64-4.49a2.86,2.86,0,0,0,.13-2.64l-2.2-4.72a2.84,2.84,0,0,1,3.18-4l5.09,1.13a2.87,2.87,0,0,0,2.55-.69l3.81-3.55a2.84,2.84,0,0,1,4.76,1.8l.5,5.19a2.86,2.86,0,0,0,1.44,2.21l4.56,2.52a2.84,2.84,0,0,1-.25,5.09l-4.78,2.07a2.88,2.88,0,0,0-1.65,2.06l-1,5.11A2.84,2.84,0,0,1,1016,631.85Z"/><path class="cls-21" d="M1016,630.92l-3.24-3.66a2.65,2.65,0,0,0-2.31-.87l-4.85.59a2.66,2.66,0,0,1-2.61-4l2.48-4.21a2.67,2.67,0,0,0,.12-2.47l-2.06-4.43a2.66,2.66,0,0,1,3-3.72l4.77,1.06a2.68,2.68,0,0,0,2.39-.65l3.57-3.33a2.66,2.66,0,0,1,4.46,1.69l.47,4.86a2.64,2.64,0,0,0,1.36,2.07l4.27,2.37a2.67,2.67,0,0,1-.23,4.77l-4.48,1.94a2.69,2.69,0,0,0-1.55,1.94l-.94,4.79A2.66,2.66,0,0,1,1016,630.92Z"/><path class="cls-20" d="M957.1,618.61l-5.16.72a2.83,2.83,0,0,0-2.15,1.54l-2.33,4.66a2.83,2.83,0,0,1-5.08,0l-2.29-4.68a2.81,2.81,0,0,0-2.12-1.56l-5.15-.78a2.84,2.84,0,0,1-1.55-4.85L935,610a2.86,2.86,0,0,0,.83-2.51l-.86-5.14a2.84,2.84,0,0,1,4.14-3l4.59,2.45a2.83,2.83,0,0,0,2.64,0l4.63-2.4a2.84,2.84,0,0,1,4.1,3l-.91,5.13a2.85,2.85,0,0,0,.8,2.51l3.71,3.66A2.84,2.84,0,0,1,957.1,618.61Z"/><path class="cls-21" d="M956.3,618.13l-4.84.68a2.65,2.65,0,0,0-2,1.44l-2.18,4.37a2.66,2.66,0,0,1-4.77,0l-2.14-4.39a2.68,2.68,0,0,0-2-1.46l-4.83-.73a2.66,2.66,0,0,1-1.45-4.54l3.52-3.39a2.68,2.68,0,0,0,.78-2.35l-.8-4.82a2.65,2.65,0,0,1,3.87-2.78l4.31,2.29a2.63,2.63,0,0,0,2.47,0l4.34-2.25a2.66,2.66,0,0,1,3.84,2.83l-.85,4.81a2.64,2.64,0,0,0,.76,2.35l3.47,3.43A2.66,2.66,0,0,1,956.3,618.13Z"/><path class="cls-20" d="M1046.52,625.08a2.83,2.83,0,0,1-2.21,2.49l-.22,0-.61.08-.16,0-.48.06-3.91.55a2.83,2.83,0,0,0-2.14,1.54l-2,4.08h-.69c-1.44,0-2.88,0-4.33,0h-.61l-1.51-3.1-.25-.52-.27-.55a2.83,2.83,0,0,0-2.13-1.56l-.23,0-1-.15-3.92-.59a2.81,2.81,0,0,1-.73-.21,2.77,2.77,0,0,1-1.41-1.39,2.81,2.81,0,0,1,.59-3.25L1022,619a2.81,2.81,0,0,0,.83-2.51l-.5-3-.1-.57-.06-.37-.13-.82-.06-.34a2.84,2.84,0,0,1,4.13-3l4.6,2.45a2.83,2.83,0,0,0,2.64,0l3.41-1.77.45-.24.76-.39a2.76,2.76,0,0,1,2.39-.1,2.63,2.63,0,0,1,.63.36,2.82,2.82,0,0,1,1.08,2.76l-.9,5.13a2.8,2.8,0,0,0,.8,2.51l3.71,3.66a2.69,2.69,0,0,1,.74,1.26A2.63,2.63,0,0,1,1046.52,625.08Z"/><path class="cls-21" d="M1043.76,627a2.47,2.47,0,0,1-.47.11h-.1l-.41.06-4.32.61a2.65,2.65,0,0,0-2,1.44l-2.19,4.37a2.77,2.77,0,0,1-.2.34c-1.44,0-2.88,0-4.33,0a2.23,2.23,0,0,1-.24-.4l-1.42-2.91-.25-.51-.47-1a2.66,2.66,0,0,0-2-1.46l-.16,0h0l-1.12-.17-3.54-.54a2.66,2.66,0,0,1-1.45-4.54l3.51-3.39a2.68,2.68,0,0,0,.78-2.35l-.55-3.32-.1-.57,0-.23-.12-.7a1.23,1.23,0,0,1,0-.19h0a2.66,2.66,0,0,1,3.9-2.59l4.31,2.29a2.65,2.65,0,0,0,2.48,0l3.62-1.88.45-.24.26-.13a2.62,2.62,0,0,1,1.57-.28,2.68,2.68,0,0,1,2.28,3.11l-.85,4.81a2.66,2.66,0,0,0,.75,2.35l3.48,3.43A2.66,2.66,0,0,1,1043.76,627Z"/><path class="cls-20" d="M933.1,607.61l-5.16.72a2.83,2.83,0,0,0-2.15,1.54l-2.33,4.66a2.83,2.83,0,0,1-5.08,0l-2.29-4.68a2.81,2.81,0,0,0-2.12-1.56l-5.15-.78a2.84,2.84,0,0,1-1.55-4.85L911,599a2.86,2.86,0,0,0,.83-2.51l-.86-5.14a2.84,2.84,0,0,1,4.14-3l4.59,2.45a2.83,2.83,0,0,0,2.64,0l4.63-2.4a2.84,2.84,0,0,1,4.1,3l-.91,5.13a2.85,2.85,0,0,0,.8,2.51l3.71,3.66A2.84,2.84,0,0,1,933.1,607.61Z"/><path class="cls-21" d="M932.3,607.13l-4.84.68a2.65,2.65,0,0,0-2,1.44l-2.18,4.37a2.66,2.66,0,0,1-4.77,0l-2.14-4.39a2.68,2.68,0,0,0-2-1.46l-4.83-.73a2.66,2.66,0,0,1-1.45-4.54l3.52-3.39a2.68,2.68,0,0,0,.78-2.35l-.8-4.82a2.65,2.65,0,0,1,3.87-2.78l4.31,2.29a2.63,2.63,0,0,0,2.47,0l4.34-2.25a2.66,2.66,0,0,1,3.84,2.83l-.85,4.81a2.64,2.64,0,0,0,.76,2.35l3.47,3.43A2.66,2.66,0,0,1,932.3,607.13Z"/><path class="cls-20" d="M977.59,629.51a2.88,2.88,0,0,1,0,.72,3,3,0,0,1-.88,1.59l-1.43-.14c-3.63-.34-7.16-.73-10.57-1.14l-1.41-.17c-3-.38-5.87-.77-8.66-1.2-1.26-.19-2.49-.38-3.7-.58l-.15-.05a2.83,2.83,0,0,1-.75-5l4.28-3a2.91,2.91,0,0,0,1.15-1.7,3,3,0,0,0,.07-.6V613a2.88,2.88,0,0,1,.32-1.34,2.69,2.69,0,0,1,.29-.43,2.84,2.84,0,0,1,3.95-.5l2.35,1.78,1,.79.44.33.32.25a3.22,3.22,0,0,0,.39.25,2.84,2.84,0,0,0,2.21.19l1.67-.55.78-.25,1.61-.53.48-.16.41-.13a2.84,2.84,0,0,1,1.6-.06,2.05,2.05,0,0,1,.49.18,2.84,2.84,0,0,1,1.48,3.51l-.59,1.69-.35,1-.48,1.37-.23.67-.07.19a2.36,2.36,0,0,0-.12.51,2.48,2.48,0,0,0,0,.86,2.84,2.84,0,0,0,.51,1.25l3.07,4.2A2.79,2.79,0,0,1,977.59,629.51Z"/><path class="cls-21" d="M976.71,629.37a2.74,2.74,0,0,1-1.46,2.31c-3.63-.34-7.16-.73-10.57-1.14l-1.41-.17c-3-.38-5.87-.77-8.66-1.2l-3.07-1a2.66,2.66,0,0,1-.7-4.72l4-2.78a2.64,2.64,0,0,0,1.13-1.92,2.44,2.44,0,0,0,0-.27v-4.89a2.68,2.68,0,0,1,.39-1.41,3.25,3.25,0,0,1,.31-.4,2.65,2.65,0,0,1,3.57-.31l2.18,1.66.29.22,1.41,1.07a2.4,2.4,0,0,0,.86.43,1.4,1.4,0,0,0,.34.08,2.54,2.54,0,0,0,1.25-.1l2-.65.69-.23,1.73-.56.23-.08a1.22,1.22,0,0,1,.26-.06,2.58,2.58,0,0,1,1.72.18,2.69,2.69,0,0,1,.46.28,2.65,2.65,0,0,1,.91,3l-.42,1.19-.33.94-.27.78-.24.67-.36,1,0,.13a2.35,2.35,0,0,0-.09.87,2.67,2.67,0,0,0,.5,1.45l2.88,3.94A2.7,2.7,0,0,1,976.71,629.37Z"/><path class="cls-20" d="M987.35,631.26a2.73,2.73,0,0,1-.25,1.39.36.36,0,0,1,0,.09l0-.09-.51,0h-.16c-2-.15-4-.3-6-.47l-.84-.07-2.86-.25-1.43-.14c-3.63-.34-7.16-.73-10.57-1.14l-1.41-.17,2.27-.57a2.82,2.82,0,0,0,2-1.75l.24-.65.4-1.07,1.19-3.16a2.76,2.76,0,0,1,1.59-1.62,2.36,2.36,0,0,1,.69-.19,2.94,2.94,0,0,1,1.28.11,2.48,2.48,0,0,1,.57.27,2.69,2.69,0,0,1,.94.93l2.75,4.41a2.86,2.86,0,0,0,2.28,1.34l5.21.23a2.78,2.78,0,0,1,2.39,1.54A2.87,2.87,0,0,1,987.35,631.26Z"/><path class="cls-21" d="M986.41,632.61c-2-.15-4-.3-6-.47l-.84-.07-2.86-.25-1.43-.14c-3.63-.34-7.16-.73-10.57-1.14l1.41-.35a2.67,2.67,0,0,0,1.78-1.48c0-.05,0-.11.07-.17l1.71-4.57a2.58,2.58,0,0,1,1.33-1.45,2.63,2.63,0,0,1,1.83-.18,2.33,2.33,0,0,1,.66.26,2.57,2.57,0,0,1,.93.9l2.58,4.14a2.69,2.69,0,0,0,2.14,1.25l4.88.22A2.66,2.66,0,0,1,986.41,632.61Z"/><path class="cls-20" d="M1052.18,615.89l.36-5.19a2.83,2.83,0,0,0-1.06-2.42l-4.07-3.25a2.84,2.84,0,0,1,1.08-5l5.06-1.26a2.84,2.84,0,0,0,2-1.75l1.83-4.88a2.83,2.83,0,0,1,5.06-.5l2.76,4.41a2.83,2.83,0,0,0,2.28,1.34l5.2.23a2.84,2.84,0,0,1,2,4.66l-3.35,4a2.86,2.86,0,0,0-.57,2.58l1.39,5a2.84,2.84,0,0,1-3.8,3.38l-4.83-1.95a2.84,2.84,0,0,0-2.62.26l-4.35,2.87A2.83,2.83,0,0,1,1052.18,615.89Z"/><path class="cls-21" d="M1052.81,615.21l.34-4.87a2.69,2.69,0,0,0-1-2.27l-3.82-3a2.66,2.66,0,0,1,1-4.66l4.73-1.18a2.67,2.67,0,0,0,1.85-1.65l1.72-4.57a2.66,2.66,0,0,1,4.74-.47l2.59,4.14a2.66,2.66,0,0,0,2.14,1.25l4.87.22a2.65,2.65,0,0,1,1.92,4.36l-3.14,3.74a2.68,2.68,0,0,0-.53,2.42l1.3,4.71a2.66,2.66,0,0,1-3.56,3.17l-4.52-1.83a2.67,2.67,0,0,0-2.47.25l-4.07,2.69A2.66,2.66,0,0,1,1052.81,615.21Z"/><path class="cls-20" d="M882.48,589a2.83,2.83,0,0,0-.56,2.58l1.39,5a2.84,2.84,0,0,1-3.8,3.38l-4.83-2a2.85,2.85,0,0,0-2.63.26l-4.34,2.87a2.84,2.84,0,0,1-4.4-2.57l.37-5.19a2.85,2.85,0,0,0-1.06-2.42l-4.08-3.25a3.51,3.51,0,0,1-.44-.42,4.3,4.3,0,0,0,1.73.71h0a2.75,2.75,0,0,0,1.21-.09,3.58,3.58,0,0,0,2.13-2.57,3.37,3.37,0,0,0,2.87.57,3.72,3.72,0,0,0,2.21-2.86,3.19,3.19,0,0,0,2.46.29c2.34-.76,3.24-4.59,2.19-8.85h0c-.09-.35-.19-.7-.3-1.06a2.69,2.69,0,0,1,.94.93l2.75,4.41a2.86,2.86,0,0,0,2.28,1.34l5.21.23a2.84,2.84,0,0,1,2,4.66Z"/><path class="cls-21" d="M881.92,588.89a2.65,2.65,0,0,0-.53,2.42l1.3,4.71a2.66,2.66,0,0,1-3.56,3.17l-4.53-1.83a2.66,2.66,0,0,0-2.46.25l-4.08,2.69a2.66,2.66,0,0,1-4.11-2.41l.34-4.87a2.67,2.67,0,0,0-1-2.27L859.84,588a2.75,2.75,0,0,0,1.21-.09,3.58,3.58,0,0,0,2.13-2.57,3.37,3.37,0,0,0,2.87.57,3.72,3.72,0,0,0,2.21-2.86,3.19,3.19,0,0,0,2.46.29c2.34-.76,3.24-4.59,2.19-8.85a2.48,2.48,0,0,1,.63.69l2.58,4.14a2.69,2.69,0,0,0,2.14,1.25l4.88.22a2.65,2.65,0,0,1,1.92,4.36Z"/><path class="cls-20" d="M864.48,518a2.83,2.83,0,0,0-.56,2.58l1.39,5a2.84,2.84,0,0,1-3.8,3.38l-4.83-2a2.85,2.85,0,0,0-2.63.26l-4.34,2.87a2.84,2.84,0,0,1-4.4-2.57l.37-5.19a2.85,2.85,0,0,0-1.06-2.42l-.87-.7-3.21-2.55a3.51,3.51,0,0,1-.44-.42,4.3,4.3,0,0,0,1.73.71h0a2.75,2.75,0,0,0,1.21-.09,3.58,3.58,0,0,0,2.13-2.57,4.58,4.58,0,0,0,.94.47,2.87,2.87,0,0,0,1.93.1,3.72,3.72,0,0,0,2.21-2.86,3.19,3.19,0,0,0,2.46.29c2.34-.76,3.24-4.59,2.19-8.85h0c-.09-.35-.19-.7-.3-1.06a2.69,2.69,0,0,1,.94.93l2.75,4.41a2.86,2.86,0,0,0,2.28,1.34l5.21.23a2.84,2.84,0,0,1,2,4.66Z"/><path class="cls-21" d="M863.92,517.89a2.65,2.65,0,0,0-.53,2.42l1.3,4.71a2.66,2.66,0,0,1-3.56,3.17l-4.53-1.83a2.66,2.66,0,0,0-2.46.25l-4.08,2.69a2.66,2.66,0,0,1-4.11-2.41l.34-4.87a2.67,2.67,0,0,0-1-2.27l-1.26-1L841.84,517a2.75,2.75,0,0,0,1.21-.09,3.58,3.58,0,0,0,2.13-2.57,4.58,4.58,0,0,0,.94.47,2.87,2.87,0,0,0,1.93.1,3.72,3.72,0,0,0,2.21-2.86,3.19,3.19,0,0,0,2.46.29c2.34-.76,3.24-4.59,2.19-8.85a2.48,2.48,0,0,1,.63.69l2.58,4.14a2.69,2.69,0,0,0,2.14,1.25l4.88.22a2.65,2.65,0,0,1,1.92,4.36Z"/><path class="cls-20" d="M783.48,341a2.83,2.83,0,0,0-.56,2.58l1.39,5a2.84,2.84,0,0,1-3.8,3.38L775.68,350a2.85,2.85,0,0,0-2.63.26l-4.34,2.87a2.84,2.84,0,0,1-4.4-2.57l.37-5.19a2.85,2.85,0,0,0-1.06-2.42l-4.08-3.25a3.51,3.51,0,0,1-.44-.42,4.3,4.3,0,0,0,1.73.71h0a2.75,2.75,0,0,0,1.21-.09,3.58,3.58,0,0,0,2.13-2.57,3.37,3.37,0,0,0,2.87.57,3.72,3.72,0,0,0,2.21-2.86,3.19,3.19,0,0,0,2.46.29c2.34-.76,3.24-4.59,2.19-8.85h0c-.09-.35-.19-.7-.3-1.06a2.69,2.69,0,0,1,.94.93l2.75,4.41a2.86,2.86,0,0,0,2.28,1.34l5.21.23a2.84,2.84,0,0,1,2,4.66Z"/><path class="cls-21" d="M782.92,340.89a2.65,2.65,0,0,0-.53,2.42l1.3,4.71a2.66,2.66,0,0,1-3.56,3.17l-4.53-1.83a2.66,2.66,0,0,0-2.46.25l-4.08,2.69a2.66,2.66,0,0,1-4.11-2.41l.34-4.87a2.67,2.67,0,0,0-1-2.27L760.84,340a2.75,2.75,0,0,0,1.21-.09,3.58,3.58,0,0,0,2.13-2.57,3.37,3.37,0,0,0,2.87.57,3.72,3.72,0,0,0,2.21-2.86,3.19,3.19,0,0,0,2.46.29c2.34-.76,3.24-4.59,2.19-8.85a2.48,2.48,0,0,1,.63.69l2.58,4.14a2.69,2.69,0,0,0,2.14,1.25l4.88.22a2.65,2.65,0,0,1,1.92,4.36Z"/><path class="cls-20" d="M880.78,738.32c-.62.36-.83.85-.57,1.31l1.43,2.55c.63,1.14-1.67,2.16-3.91,1.71l-5-1a5.69,5.69,0,0,0-2.7.13l-.15.05v-8c1.47-.75,1.91-2.36,1-4.1h0a5,5,0,0,0-.31-.54,2.83,2.83,0,0,1,1,.47l2.83,2.24a4,4,0,0,0,2.34.68l5.36.12c2.41.05,3.65,1.45,2.1,2.36Z"/><path class="cls-21" d="M879.52,737.69c-.55.32-.73.75-.51,1.14l1.25,2.22c.56,1-1.46,1.88-3.42,1.49l-4.34-.86a4.85,4.85,0,0,0-2.37.12l-.22.07v-7.15c1.38-.7,1.78-2.18,1-3.8a2.22,2.22,0,0,1,.61.33l2.47,1.94a3.68,3.68,0,0,0,2.06.59l4.68.11c2.11,0,3.21,1.26,1.84,2.05Z"/><path class="cls-20" d="M693.05,679.32c.61.36.83.85.57,1.31l-1.43,2.55c-.63,1.14,1.67,2.16,3.91,1.71l5-1a5.69,5.69,0,0,1,2.7.13l.14.05v-8c-1.47-.75-1.9-2.36-1-4.1h0q.14-.27.3-.54a2.78,2.78,0,0,0-1,.47l-2.83,2.24a4,4,0,0,1-2.34.68l-5.36.12c-2.42.05-3.65,1.45-2.1,2.36Z"/><path class="cls-21" d="M694.31,678.69c.55.32.73.75.51,1.14l-1.25,2.22c-.57,1,1.46,1.88,3.42,1.49l4.34-.86a4.8,4.8,0,0,1,2.36.12l.22.07v-7.15c-1.37-.7-1.77-2.18-1-3.8a2.16,2.16,0,0,0-.6.33l-2.48,1.94a3.61,3.61,0,0,1-2,.59l-4.68.11c-2.11,0-3.21,1.26-1.84,2.05Z"/><path class="cls-20" d="M1032.18,605.89l.36-5.19a2.83,2.83,0,0,0-1.06-2.42l-4.07-3.25a2.84,2.84,0,0,1,1.08-5l5.06-1.26a2.84,2.84,0,0,0,2-1.75l1.83-4.88a2.83,2.83,0,0,1,5.06-.5l2.76,4.41a2.83,2.83,0,0,0,2.28,1.34l5.2.23a2.84,2.84,0,0,1,2,4.66l-3.35,4a2.86,2.86,0,0,0-.57,2.58l1.39,5a2.84,2.84,0,0,1-3.8,3.38l-4.83-1.95a2.84,2.84,0,0,0-2.62.26l-4.35,2.87A2.83,2.83,0,0,1,1032.18,605.89Z"/><path class="cls-21" d="M1032.81,605.21l.34-4.87a2.69,2.69,0,0,0-1-2.27l-3.82-3a2.66,2.66,0,0,1,1-4.66l4.73-1.18a2.67,2.67,0,0,0,1.85-1.65l1.72-4.57a2.66,2.66,0,0,1,4.74-.47l2.59,4.14a2.66,2.66,0,0,0,2.14,1.25l4.87.22a2.65,2.65,0,0,1,1.92,4.36l-3.14,3.74a2.68,2.68,0,0,0-.53,2.42l1.3,4.71a2.66,2.66,0,0,1-3.56,3.17l-4.52-1.83a2.67,2.67,0,0,0-2.47.25l-4.07,2.69A2.66,2.66,0,0,1,1032.81,605.21Z"/><path class="cls-20" d="M729.88,760l2.93-2.13c.52-.38.49-.77-.1-1.06l-3.25-1.59c-1.46-.72.71-1.89,3.68-2l6.57-.21a9.38,9.38,0,0,0,3.18-.6l4.5-1.9c2-.86,5.72-.8,6.23.1l1.13,2c.2.35,1,.61,2,.69l6,.41c2.72.19,2.83,1.4.17,2.05l-5.87,1.45c-1,.25-1.77.64-1.91,1l-.77,2.15c-.35,1-4,1.67-6.12,1.17l-4.76-1.11a9.83,9.83,0,0,0-3.23,0l-6.52.92C730.89,761.7,728.55,760.92,729.88,760Z"/><path class="cls-21" d="M730.9,759.09l2.76-1.86c.49-.33.46-.67-.08-.92l-3-1.36c-1.37-.61.67-1.64,3.45-1.74l6.17-.22a9.55,9.55,0,0,0,3-.54l4.24-1.67c1.91-.76,5.36-.73,5.83.05l1,1.72c.19.3.91.52,1.92.58l5.65.32c2.55.15,2.64,1.2.15,1.78l-5.51,1.28c-1,.23-1.66.57-1.79.9l-.74,1.88c-.34.84-3.73,1.46-5.74,1l-4.46-.92a9.43,9.43,0,0,0-3,0l-6.11.83C731.84,760.59,729.65,759.93,730.9,759.09Z"/><path class="cls-20" d="M811.58,705.27l3.12-1.83c.56-.33.57-.73,0-1.07l-3.08-1.9c-1.39-.85.89-1.81,3.85-1.62l6.57.43a9.4,9.4,0,0,0,3.21-.29l4.67-1.45c2.11-.66,5.77-.24,6.19.7l.93,2.1c.17.37.91.7,2,.88l6,1c2.69.45,2.68,1.67,0,2.06l-6,.86c-1.08.16-1.82.47-2,.85l-1,2.07c-.45.93-4.11,1.27-6.2.56l-4.64-1.56a9.5,9.5,0,0,0-3.21-.36l-6.57.28C812.42,707.1,810.17,706.09,811.58,705.27Z"/><path class="cls-21" d="M812.68,704.5l2.93-1.58c.52-.28.53-.63,0-.92l-2.89-1.65c-1.31-.74.82-1.57,3.6-1.39l6.16.37a9.36,9.36,0,0,0,3-.25l4.38-1.25c2-.57,5.4-.21,5.8.61l.88,1.82c.16.32.85.61,1.85.76l5.6.87c2.52.4,2.51,1.45,0,1.78l-5.62.75c-1,.13-1.7.4-1.87.72l-.92,1.8c-.41.8-3.85,1.09-5.81.48l-4.34-1.35a9.21,9.21,0,0,0-3-.32l-6.17.23C813.47,706.09,811.36,705.22,812.68,704.5Z"/><path class="cls-20" d="M764.58,696.27l-3.13-1.83c-.56-.33-.56-.73,0-1.07l3.08-1.9c1.39-.85-.88-1.81-3.84-1.62l-6.57.43a9.46,9.46,0,0,1-3.22-.29l-4.67-1.45c-2.1-.66-5.76-.24-6.18.7l-.94,2.1c-.16.37-.9.7-2,.88l-6,1c-2.69.45-2.68,1.67,0,2.06l6,.86c1.07.16,1.82.47,2,.85l1,2.07c.44.93,4.11,1.27,6.2.56l4.64-1.56a9.5,9.5,0,0,1,3.21-.36l6.57.28C763.74,698.1,766,697.09,764.58,696.27Z"/><path class="cls-21" d="M763.47,695.5l-2.92-1.58c-.53-.28-.53-.63,0-.92l2.89-1.65c1.3-.74-.83-1.57-3.61-1.39l-6.15.37a9.42,9.42,0,0,1-3-.25l-4.37-1.25c-2-.57-5.41-.21-5.8.61l-.88,1.82c-.16.32-.85.61-1.86.76l-5.59.87c-2.53.4-2.51,1.45,0,1.78l5.61.75c1,.13,1.71.4,1.87.72l.92,1.8c.42.8,3.85,1.09,5.81.48l4.35-1.35a9.21,9.21,0,0,1,3-.32l6.16.23C762.69,697.09,764.8,696.22,763.47,695.5Z"/><path class="cls-20" d="M898.88,623l2.93-2.13c.52-.38.49-.77-.1-1.06l-3.25-1.59c-1.46-.72.71-1.89,3.68-2l6.57-.21a9.38,9.38,0,0,0,3.18-.6l4.5-1.9c2-.86,5.72-.8,6.23.1l1.13,2c.2.35,1,.61,2,.69l6,.41c2.72.19,2.83,1.4.17,2.05l-5.87,1.45c-1,.25-1.77.64-1.91,1l-.77,2.15c-.35,1-4,1.67-6.12,1.17l-4.76-1.11a9.83,9.83,0,0,0-3.23,0l-6.52.92C899.89,624.7,897.55,623.92,898.88,623Z"/><path class="cls-21" d="M899.9,622.09l2.76-1.86c.49-.33.46-.67-.08-.92l-3-1.36c-1.37-.61.67-1.64,3.45-1.74l6.17-.22a9.55,9.55,0,0,0,3-.54l4.24-1.67c1.91-.76,5.36-.73,5.83.05l1,1.72c.19.3.91.52,1.92.58l5.65.32c2.55.15,2.64,1.2.15,1.78l-5.51,1.28c-1,.23-1.66.57-1.79.9l-.74,1.88c-.34.84-3.73,1.46-5.74,1l-4.46-.92a9.43,9.43,0,0,0-3,0l-6.11.83C900.84,623.59,898.65,622.93,899.9,622.09Z"/><circle class="cls-20" cx="1065.91" cy="623" r="5"/><circle class="cls-21" cx="1065.91" cy="623" r="4"/><circle class="cls-20" cx="1041.91" cy="614" r="5"/><circle class="cls-21" cx="1041.91" cy="614" r="4"/><circle class="cls-20" cx="1034.91" cy="613" r="5"/><circle class="cls-21" cx="1034.91" cy="613" r="4"/><circle class="cls-20" cx="791.91" cy="669" r="5"/><circle class="cls-21" cx="791.91" cy="669" r="4"/><circle class="cls-21" cx="859.91" cy="684" r="4"/><circle class="cls-20" cx="824.91" cy="474" r="5"/><circle class="cls-21" cx="824.91" cy="474" r="4"/><circle class="cls-20" cx="780.91" cy="262" r="5"/><circle class="cls-21" cx="780.91" cy="262" r="4"/><circle class="cls-20" cx="1046.91" cy="622" r="5"/><circle class="cls-21" cx="1046.91" cy="622" r="4"/><circle class="cls-20" cx="1013.91" cy="596" r="5"/><circle class="cls-21" cx="1013.91" cy="596" r="4"/><circle class="cls-20" cx="948.91" cy="598" r="5"/><circle class="cls-21" cx="948.91" cy="598" r="4"/><circle class="cls-20" cx="990.91" cy="625" r="5"/><circle class="cls-21" cx="990.91" cy="625" r="4"/><circle class="cls-20" cx="1085.91" cy="602" r="5"/><circle class="cls-21" cx="1085.91" cy="602" r="4"/><line class="cls-22" x1="690.91" y1="231" x2="462" y2="186.56"/><line class="cls-22" x1="681" y1="256.61" x2="455.18" y2="263.64"/><line class="cls-22" x1="675.41" y1="245.5" x2="449.04" y2="220.02"/><line class="cls-22" x1="1049.95" y1="183.56" x2="821.04" y2="228"/><line class="cls-22" x1="1056.77" y1="260.64" x2="830.95" y2="253.61"/><line class="cls-22" x1="1062.91" y1="217.02" x2="836.54" y2="242.5"/></g></svg>